# xmcd CD Database Entry
#
# Track frame offsets:
# 183
# 12833
# 22968
# 31313
# 40618
# 48955
# 63333
# 73493
# 89265
# 100400
# 112605
# 121910
# 145253
# 156790
# 167193
# 179773
# 190843
# 200385
# 207318
# 219868
# 229148
# 239265
# 252953
# 259153
#
# Disc length: 3619 seconds
#
# Revision: 4
# Processed by: cddbd v1.4b41PL1 Copyright (c) Steve Scherf et al.
# Submitted via: tcd 2.0b
#
DISCID=4c0e2118
DTITLE=Léo Ferré - Les Poêtes (Vol 3)
DYEAR=1900
DGENRE=
TTITLE0=Ecoutez la chanson bien douce
TTITLE1=Chanson de la plus haute tour
TTITLE2=Il patinait merveilleusement
TTITLE3=Mon rêve familier
TTITLE4=Soleils couchants
TTITLE5=Les assis
TTITLE6=L'espoir luit comme un brin de paille dans l'étable
TTITLE7=Art poétique
TTITLE8=Pensionniares
TTITLE9=Ame, te souvient-il ?
TTITLE10=Le buffet
TTITLE11=Les poètes de sept ans
TTITLE12=Chanson d'automne
TTITLE13=Les corbeaux
TTITLE14=Green
TTITLE15=Mes petites amoureuses
TTITLE16=Je vous vois encor
TTITLE17=L'étoile a pleuré rose
TTITLE18=O triste, triste était mon âme
TTITLE19=Rêvé pour l'hiver
TTITLE20=Clair de lune
TTITLE21=Les chercheuses de poux
TTITLE22=Ma bohème
TTITLE23=Sérénade
EXTD=
EXTT0=
EXTT1=
EXTT2=
EXTT3=
EXTT4=
EXTT5=
EXTT6=
EXTT7=
EXTT8=
EXTT9=
EXTT10=
EXTT11=
EXTT12=
EXTT13=
EXTT14=
EXTT15=
EXTT16=
EXTT17=
EXTT18=
EXTT19=
EXTT20=
EXTT21=
EXTT22=
EXTT23=
PLAYORDER=
